<?xml version="1.0" encoding="UTF-8" standalone="no"?>
<!DOCTYPE svg PUBLIC "-//W3C//DTD SVG 1.1//EN" "http://www.w3.org/Graphics/SVG/1.1/DTD/svg11.dtd">
<svg version="1.1" xmlns="http://www.w3.org/2000/svg" xmlns:xlink="http://www.w3.org/1999/xlink" preserveAspectRatio="xMidYMid meet" viewBox="0 0 640 640" width="640" height="640"><defs><path d="M221.63 87.11C392.15 73.15 477.41 138.62 477.41 283.53C477.41 428.45 392.15 493.05 221.63 477.33L221.63 227.23L221.63 87.11Z" id="kCF6G6jfV"></path><path d="M235.45 105.44C384.3 92.78 458.72 152.11 458.72 283.43C458.72 414.75 384.3 473.29 235.45 459.06L235.45 232.41L235.45 105.44Z" id="c10enqK9HV"></path></defs><g><g><g><g><filter id="shadow16091434" x="203.63" y="67.27" width="302.77" height="438.37" filterUnits="userSpaceOnUse" primitiveUnits="userSpaceOnUse"><feFlood></feFlood><feComposite in2="SourceAlpha" operator="in"></feComposite><feGaussianBlur stdDeviation="1"></feGaussianBlur><feOffset dx="11" dy="8" result="afterOffset"></feOffset><feFlood flood-color="#000000" flood-opacity="0.5"></feFlood><feComposite in2="afterOffset" operator="in"></feComposite><feMorphology operator="dilate" radius="0"></feMorphology><feComposite in2="SourceAlpha" operator="out"></feComposite></filter><path d="M221.63 87.11C392.15 73.15 477.41 138.62 477.41 283.53C477.41 428.45 392.15 493.05 221.63 477.33L221.63 227.23L221.63 87.11Z" id="a5Bt9Vb4Wy" fill="white" fill-opacity="1" filter="url(#shadow16091434)"></path></g><g><use xlink:href="#kCF6G6jfV" opacity="1" fill-opacity="0" stroke="#69c7f8" stroke-width="26" stroke-opacity="1"></use></g></g><g><g><filter id="shadow11333378" x="191.45" y="59.77" width="311.27" height="462.38" filterUnits="userSpaceOnUse" primitiveUnits="userSpaceOnUse"><feFlood></feFlood><feComposite in2="SourceAlpha" operator="in"></feComposite><feGaussianBlur stdDeviation="3"></feGaussianBlur><feOffset dx="0" dy="17" result="afterOffset"></feOffset><feFlood flood-color="#000000" flood-opacity="0.5"></feFlood><feComposite in2="afterOffset" operator="in"></feComposite><feMorphology operator="dilate" radius="4"></feMorphology><feComposite in2="SourceAlpha" operator="out"></feComposite></filter><path d="M235.45 105.44C384.3 92.78 458.72 152.11 458.72 283.43C458.72 414.75 384.3 473.29 235.45 459.06L235.45 232.41L235.45 105.44Z" id="aNN0EGAEf" fill="white" fill-opacity="1" filter="url(#shadow11333378)"></path></g><g><use xlink:href="#c10enqK9HV" opacity="1" fill-opacity="0" stroke="#ff8d00" stroke-width="24" stroke-opacity="1"></use></g></g></g></g></svg>